<mxfile host="Electron" modified="2025-03-18T06:40:02.382Z" agent="Mozilla/5.0 (Windows NT 10.0; Win64; x64) AppleWebKit/537.36 (KHTML, like Gecko) draw.io/21.2.8 Chrome/112.0.5615.165 Electron/24.2.0 Safari/537.36" etag="v40Ms-5Ti16-1Y7-qeiB" version="21.2.8" type="device">
  <diagram name="第 1 页" id="sNRUVEc02uYX7VjR3YYx">
    <mxGraphModel dx="1300" dy="894" grid="1" gridSize="10" guides="1" tooltips="1" connect="1" arrows="1" fold="1" page="1" pageScale="1" pageWidth="827" pageHeight="1169" math="0" shadow="0">
      <root>
        <mxCell id="0" />
        <mxCell id="1" parent="0" />
        <mxCell id="wBrOxgyvpnblt3OhYC47-1" value="" style="rounded=1;whiteSpace=wrap;html=1;fillColor=#f8cecc;strokeColor=#b85450;" vertex="1" parent="1">
          <mxGeometry x="414" y="110" width="120" height="60" as="geometry" />
        </mxCell>
        <mxCell id="wBrOxgyvpnblt3OhYC47-2" value="" style="rounded=1;whiteSpace=wrap;html=1;fillColor=#dae8fc;strokeColor=#6c8ebf;" vertex="1" parent="1">
          <mxGeometry x="414" y="250" width="120" height="60" as="geometry" />
        </mxCell>
        <mxCell id="wBrOxgyvpnblt3OhYC47-3" value="&lt;font style=&quot;font-size: 17px;&quot;&gt;前端&lt;/font&gt;" style="text;strokeColor=none;align=center;fillColor=none;html=1;verticalAlign=middle;whiteSpace=wrap;rounded=0;" vertex="1" parent="1">
          <mxGeometry x="444" y="125" width="60" height="30" as="geometry" />
        </mxCell>
        <mxCell id="wBrOxgyvpnblt3OhYC47-4" value="&lt;font style=&quot;font-size: 17px;&quot;&gt;go-kratos&lt;br&gt;后端&lt;/font&gt;" style="text;strokeColor=none;align=center;fillColor=none;html=1;verticalAlign=middle;whiteSpace=wrap;rounded=0;" vertex="1" parent="1">
          <mxGeometry x="421" y="265" width="106" height="30" as="geometry" />
        </mxCell>
        <mxCell id="wBrOxgyvpnblt3OhYC47-5" value="" style="rounded=1;whiteSpace=wrap;html=1;fillColor=#d5e8d4;strokeColor=#82b366;" vertex="1" parent="1">
          <mxGeometry x="389" y="360" width="170" height="60" as="geometry" />
        </mxCell>
        <mxCell id="wBrOxgyvpnblt3OhYC47-6" value="&lt;font style=&quot;font-size: 17px;&quot;&gt;Flask-AI服务&lt;/font&gt;" style="text;strokeColor=none;align=center;fillColor=none;html=1;verticalAlign=middle;whiteSpace=wrap;rounded=0;" vertex="1" parent="1">
          <mxGeometry x="416" y="375" width="116" height="30" as="geometry" />
        </mxCell>
        <mxCell id="wBrOxgyvpnblt3OhYC47-12" value="" style="shape=cylinder3;whiteSpace=wrap;html=1;boundedLbl=1;backgroundOutline=1;size=15;fillColor=#e1d5e7;strokeColor=#9673a6;" vertex="1" parent="1">
          <mxGeometry x="737" y="235" width="90" height="90" as="geometry" />
        </mxCell>
        <mxCell id="wBrOxgyvpnblt3OhYC47-13" value="&lt;font style=&quot;font-size: 17px;&quot;&gt;MYSQL&lt;/font&gt;" style="text;strokeColor=none;align=center;fillColor=none;html=1;verticalAlign=middle;whiteSpace=wrap;rounded=0;" vertex="1" parent="1">
          <mxGeometry x="740.5" y="265" width="83" height="50" as="geometry" />
        </mxCell>
        <mxCell id="wBrOxgyvpnblt3OhYC47-16" value="&lt;font style=&quot;font-size: 17px;&quot;&gt;请求（只传id）&lt;br&gt;&lt;/font&gt;" style="text;strokeColor=none;align=center;fillColor=none;html=1;verticalAlign=middle;whiteSpace=wrap;rounded=0;" vertex="1" parent="1">
          <mxGeometry x="330" y="315" width="140" height="30" as="geometry" />
        </mxCell>
        <mxCell id="wBrOxgyvpnblt3OhYC47-17" value="&lt;font style=&quot;font-size: 17px;&quot;&gt;提取对应的&lt;br&gt;问卷、资产数据&lt;br&gt;&lt;/font&gt;" style="text;strokeColor=none;align=center;fillColor=none;html=1;verticalAlign=middle;whiteSpace=wrap;rounded=0;" vertex="1" parent="1">
          <mxGeometry x="630" y="360" width="150" height="40" as="geometry" />
        </mxCell>
        <mxCell id="wBrOxgyvpnblt3OhYC47-18" value="" style="endArrow=classic;html=1;rounded=0;exitX=1;exitY=0.5;exitDx=0;exitDy=0;entryX=0;entryY=0.5;entryDx=0;entryDy=0;entryPerimeter=0;" edge="1" parent="1" source="wBrOxgyvpnblt3OhYC47-2" target="wBrOxgyvpnblt3OhYC47-12">
          <mxGeometry width="50" height="50" relative="1" as="geometry">
            <mxPoint x="571" y="280" as="sourcePoint" />
            <mxPoint x="657" y="200" as="targetPoint" />
          </mxGeometry>
        </mxCell>
        <mxCell id="wBrOxgyvpnblt3OhYC47-19" value="" style="endArrow=classic;html=1;rounded=0;exitX=0.145;exitY=1;exitDx=0;exitDy=-4.35;exitPerimeter=0;entryX=1;entryY=0.5;entryDx=0;entryDy=0;" edge="1" parent="1" source="wBrOxgyvpnblt3OhYC47-12" target="wBrOxgyvpnblt3OhYC47-5">
          <mxGeometry width="50" height="50" relative="1" as="geometry">
            <mxPoint x="637" y="440" as="sourcePoint" />
            <mxPoint x="596" y="390" as="targetPoint" />
          </mxGeometry>
        </mxCell>
        <mxCell id="wBrOxgyvpnblt3OhYC47-20" value="&lt;font style=&quot;font-size: 17px;&quot;&gt;保存前端用户提交的&lt;br&gt;问卷、资产数据&lt;br&gt;&lt;/font&gt;" style="text;strokeColor=none;align=center;fillColor=none;html=1;verticalAlign=middle;whiteSpace=wrap;rounded=0;" vertex="1" parent="1">
          <mxGeometry x="527" y="220" width="190" height="55" as="geometry" />
        </mxCell>
        <mxCell id="wBrOxgyvpnblt3OhYC47-21" value="" style="endArrow=classic;html=1;rounded=0;exitX=1;exitY=0.25;exitDx=0;exitDy=0;entryX=0;entryY=1;entryDx=0;entryDy=-15;entryPerimeter=0;" edge="1" parent="1" source="wBrOxgyvpnblt3OhYC47-5" target="wBrOxgyvpnblt3OhYC47-12">
          <mxGeometry width="50" height="50" relative="1" as="geometry">
            <mxPoint x="596" y="360" as="sourcePoint" />
            <mxPoint x="627" y="500" as="targetPoint" />
          </mxGeometry>
        </mxCell>
        <mxCell id="wBrOxgyvpnblt3OhYC47-22" value="&lt;font style=&quot;font-size: 17px;&quot;&gt;请求&lt;br&gt;（只传id）&lt;br&gt;&lt;/font&gt;" style="text;strokeColor=none;align=center;fillColor=none;html=1;verticalAlign=middle;whiteSpace=wrap;rounded=0;" vertex="1" parent="1">
          <mxGeometry x="577" y="295" width="103" height="40" as="geometry" />
        </mxCell>
        <mxCell id="wBrOxgyvpnblt3OhYC47-23" value="" style="endArrow=classic;html=1;rounded=0;" edge="1" parent="1">
          <mxGeometry width="50" height="50" relative="1" as="geometry">
            <mxPoint x="450" y="310" as="sourcePoint" />
            <mxPoint x="450" y="360" as="targetPoint" />
          </mxGeometry>
        </mxCell>
        <mxCell id="wBrOxgyvpnblt3OhYC47-24" value="" style="endArrow=classic;html=1;rounded=0;" edge="1" parent="1">
          <mxGeometry width="50" height="50" relative="1" as="geometry">
            <mxPoint x="480" y="360" as="sourcePoint" />
            <mxPoint x="480" y="310" as="targetPoint" />
          </mxGeometry>
        </mxCell>
        <mxCell id="wBrOxgyvpnblt3OhYC47-25" value="&lt;font style=&quot;font-size: 17px;&quot;&gt;返回打分&lt;br&gt;&lt;/font&gt;" style="text;strokeColor=none;align=center;fillColor=none;html=1;verticalAlign=middle;whiteSpace=wrap;rounded=0;" vertex="1" parent="1">
          <mxGeometry x="460" y="315" width="136.5" height="40" as="geometry" />
        </mxCell>
        <mxCell id="wBrOxgyvpnblt3OhYC47-26" value="" style="endArrow=classic;html=1;rounded=0;exitX=0.25;exitY=1;exitDx=0;exitDy=0;entryX=0.25;entryY=0;entryDx=0;entryDy=0;" edge="1" parent="1" source="wBrOxgyvpnblt3OhYC47-1" target="wBrOxgyvpnblt3OhYC47-2">
          <mxGeometry width="50" height="50" relative="1" as="geometry">
            <mxPoint x="300" y="250" as="sourcePoint" />
            <mxPoint x="350" y="200" as="targetPoint" />
          </mxGeometry>
        </mxCell>
        <mxCell id="wBrOxgyvpnblt3OhYC47-27" value="" style="endArrow=classic;html=1;rounded=0;exitX=0.25;exitY=1;exitDx=0;exitDy=0;entryX=0.25;entryY=0;entryDx=0;entryDy=0;" edge="1" parent="1">
          <mxGeometry width="50" height="50" relative="1" as="geometry">
            <mxPoint x="490" y="250" as="sourcePoint" />
            <mxPoint x="490" y="170" as="targetPoint" />
          </mxGeometry>
        </mxCell>
        <mxCell id="wBrOxgyvpnblt3OhYC47-28" value="&lt;font style=&quot;font-size: 17px;&quot;&gt;填写数据&lt;br&gt;&lt;/font&gt;" style="text;strokeColor=none;align=center;fillColor=none;html=1;verticalAlign=middle;whiteSpace=wrap;rounded=0;" vertex="1" parent="1">
          <mxGeometry x="350" y="190" width="100" height="40" as="geometry" />
        </mxCell>
        <mxCell id="wBrOxgyvpnblt3OhYC47-29" value="&lt;font style=&quot;font-size: 17px;&quot;&gt;展示评分&lt;br&gt;&lt;/font&gt;" style="text;strokeColor=none;align=center;fillColor=none;html=1;verticalAlign=middle;whiteSpace=wrap;rounded=0;" vertex="1" parent="1">
          <mxGeometry x="490" y="170" width="100" height="40" as="geometry" />
        </mxCell>
      </root>
    </mxGraphModel>
  </diagram>
</mxfile>
